<svg xmlns="http://www.w3.org/2000/svg" viewBox="0 0 64 64" role="img" aria-labelledby="title">
  <title>From The River favicon</title>
  <defs>
    <linearGradient id="grad" x1="0%" y1="0%" x2="100%" y2="100%">
      <stop offset="0%" stop-color="#0f766e" />
      <stop offset="100%" stop-color="#1d4ed8" />
    </linearGradient>
  </defs>
  <rect width="64" height="64" rx="12" fill="#0f172a" />
  <path
    d="M14 20h14c4.418 0 8 3.582 8 8s-3.582 8-8 8H22v8h-8V20zm8 12h6a2 2 0 0 0 0-4h-6v4zm18-12h10c6.627 0 12 5.373 12 12S56.627 44 50 44h-6v8h-8V20zm8 12h6a4 4 0 1 0 0-8h-6v8z"
    fill="url(#grad)"
  />
</svg>
